<svg xmlns="http://www.w3.org/2000/svg" viewBox="0 0 64 64" role="img" aria-label="Reader">
  <defs>
    <linearGradient id="page" x1="0" y1="0" x2="0" y2="1">
      <stop offset="0" stop-color="#fffefb"/>
      <stop offset="1" stop-color="#e9e6df"/>
    </linearGradient>
    <linearGradient id="accent" x1="0" y1="0" x2="1" y2="1">
      <stop offset="0" stop-color="#e7aaa1"/>
      <stop offset="1" stop-color="#b76f67"/>
    </linearGradient>
  </defs>
  <rect x="2" y="2" width="60" height="60" rx="15" fill="#34383d"/>
  <path d="M10 17.4c7.6-2.1 14.4-.8 20.5 3.7v29.1c-6.1-4.4-12.9-5.8-20.5-3.7z" fill="url(#page)" stroke="#17191c" stroke-width="2.4" stroke-linejoin="round"/>
  <path d="M54 17.4c-7.6-2.1-14.4-.8-20.5 3.7v29.1c6.1-4.4 12.9-5.8 20.5-3.7z" fill="url(#accent)" stroke="#17191c" stroke-width="2.4" stroke-linejoin="round"/>
  <path d="M32 20.6v30.3" fill="none" stroke="#17191c" stroke-width="2.5" stroke-linecap="round"/>
  <path d="M14.8 22.2c4.4-.8 8.2.1 11.7 2.5M14.8 28c4.4-.8 8.2.1 11.7 2.5" fill="none" stroke="#aaa9a6" stroke-width="1.8" stroke-linecap="round" opacity=".7"/>
  <path d="M49.2 22.2c-4.4-.8-8.2.1-11.7 2.5M49.2 28c-4.4-.8-8.2.1-11.7 2.5" fill="none" stroke="#8e504a" stroke-width="1.8" stroke-linecap="round" opacity=".75"/>
</svg>
